<svg xmlns="http://www.w3.org/2000/svg" width="515" height="450"><path d="M393.481 222.291c40.734-3.854 80.275-4.493 115.205 7.282l2.006-13.377c-6.076-2.899-13.823-5.463-20.734-5.685-9.364-12.263-8.194-28.705-17.558-40.967C443.761 67.319 375.337 8.298 291.569 3.317 202.743-1.965 97.745 49.355 43.838 23.569 94.622 176.956 250.563 258.985 464.374 177.57c6.243 8.695 5.964 22.239 12.207 30.934-24.332-.965-52.679-.594-77.011 1.451-2.029 4.112-4.058 8.224-6.089 12.336" fill="#5EB245"/><path d="M464.346 169.348c-24.2-83.988-82.112-152.933-173.234-158.351-74.189-4.412-173.183 38.83-234.651 24.94 69.036 177.398 269.734-23.71 407.885 133.411" fill="#87C047"/><path d="M134.701 173.692c22.263-39.896 69.159-67.387 123.412-67.387 51.589 0 96.521 24.858 119.95 61.602 8.558 13.422 17.105 24.079 28.345 35.349 5.68 5.698 9.234 13.817 9.234 22.828s-3.554 17.13-9.234 22.827c-11.24 11.272-19.787 21.928-28.345 35.35-23.429 36.743-68.361 61.601-119.95 61.601-54.253 0-101.149-27.489-123.412-67.386-7.581-13.586-17.229-23.481-30.622-31.399-8.324-4.921-13.657-12.496-13.657-20.993 0-8.498 5.333-16.074 13.657-20.993 13.394-7.918 23.04-17.813 30.622-31.399" fill="#ECCD26"/><path d="M207.058 337.29c-31.667-11.09-57.499-32.187-72.357-58.814-7.581-13.586-17.229-23.481-30.622-31.399a28.611 28.611 0 01-.54-.326h132.106c5.756 36.488-5.803 69.074-28.587 90.539" fill="#DABF2D"/><path d="M134.701 173.692c22.263-39.896 69.159-67.387 123.412-67.387 51.589 0 96.521 24.858 119.95 61.602 7.482 11.734 14.954 21.352 24.225 31.118-6.174 43.996-67.466 78.547-142.177 78.547-76.779 0-139.386-36.488-142.563-82.219 6.811-6.047 12.39-13.124 17.153-21.661" fill="#FBDA20"/><path d="M236.529 276.4c-34.341-3.438-64.53-14.253-85.925-29.649h85.041c1.616 10.243 1.862 20.179.884 29.649" fill="#ECCD26"/><path d="M222.743 118.221c30.459-6.979 55.152 2.222 55.152 20.55 0 18.329-24.693 38.844-55.152 45.823-30.46 6.979-55.152-2.221-55.152-20.551 0-18.328 24.692-38.844 55.152-45.822" fill="#FEEF85"/><path d="M235.645 246.751c0 64.644-52.404 117.048-117.048 117.048-64.643 0-117.048-52.404-117.048-117.048h234.096" fill="#ECCD26"/><path d="M226.114 246.751c0 58.364-48.136 105.678-107.517 105.678-59.38 0-107.516-47.314-107.516-105.678h215.033" fill="#FBDE28"/><path d="M216.583 246.751c0 51.82-43.869 93.829-97.986 93.829-54.117 0-97.986-42.009-97.986-93.829h195.972" fill="#FFFCEB"/><path d="M33.879 277.185c1.079 2.752 3.095 4.694 5.884 5.672 2.791.977 5.578.715 8.138-.763l35.635-20.574c2.137-1.234 3.143-3.662 2.504-6.045-.638-2.384-2.725-3.985-5.191-3.985H39.376c-3.039 0-5.654 1.24-7.58 3.591-1.926 2.351-2.625 5.16-2.026 8.14a83.197 83.197 0 004.109 13.964zm27.584 36.724c2.316 1.81 5.017 2.457 7.902 1.899 2.884-.562 5.146-2.176 6.615-4.721l19.639-34.016c1.233-2.134.89-4.743-.855-6.487-1.744-1.745-4.352-2.088-6.488-.854l-34.525 19.933c-2.686 1.55-4.35 4.004-4.797 7.073-.447 3.068.447 5.895 2.578 8.147a89.218 89.218 0 009.931 9.026zm40.922 18.081a92.88 92.88 0 01-12.068-2.931c-2.932-.923-5.074-2.93-6.188-5.793-1.114-2.866-.891-5.79.646-8.454l19.052-33c1.235-2.136 3.664-3.143 6.047-2.505 2.383.639 3.984 2.726 3.984 5.193v37.836c0 2.992-1.199 5.57-3.49 7.496-2.29 1.928-5.034 2.669-7.983 2.158zm44.493-2.931c2.932-.923 5.074-2.93 6.188-5.793 1.115-2.863.891-5.79-.646-8.451l-19.052-33.003c-1.235-2.136-3.664-3.143-6.047-2.505-2.383.639-3.983 2.726-3.983 5.193v37.836c0 2.992 1.198 5.567 3.489 7.496 2.29 1.928 5.033 2.669 7.983 2.158a92.88 92.88 0 0012.068-2.931zm38.785-24.175c2.131-2.253 3.026-5.08 2.579-8.148-.448-3.069-2.112-5.523-4.797-7.073l-34.526-19.933c-2.136-1.234-4.744-.89-6.488.854-1.744 1.745-2.088 4.353-.854 6.487l19.638 34.016c1.47 2.545 3.731 4.159 6.615 4.721 2.884.558 5.586-.089 7.902-1.896a89.52 89.52 0 009.931-9.028zm21.761-41.662a83.12 83.12 0 01-4.109 13.963c-1.078 2.752-3.094 4.694-5.885 5.672-2.789.975-5.576.715-8.137-.763L153.66 261.52c-2.138-1.234-3.144-3.662-2.505-6.045.638-2.384 2.724-3.985 5.191-3.985h41.472c3.039 0 5.655 1.24 7.581 3.591 1.926 2.352 2.624 5.161 2.025 8.141" fill="#FBE964"/><path d="M233.492 421.71c1.395.936 2.81 1.856 4.245 2.753 43.535 27.262 94.59 30.027 133.778 11.398 14.314-6.803 27.157-11.28 42.597-14.853 7.805-1.805 15.094-6.778 19.855-14.383 4.762-7.605 6.054-16.335 4.27-24.143-3.528-15.453-5.109-28.961-5.239-44.808-.355-43.39-25.139-88.111-68.673-115.371a160.643 160.643 0 00-4.33-2.617L233.492 421.71" fill="#FBE85E"/><path d="M233.492 421.71c1.395.936 2.81 1.856 4.245 2.753 43.535 27.262 94.59 30.027 133.778 11.398 14.314-6.803 27.157-11.28 42.597-14.853 7.805-1.805 15.094-6.778 19.855-14.383-3.033 4.845-8.765 7.334-15.479 7.395-13.279.121-24.079 1.335-35.819 4.028-32.145 7.378-78.433-2.997-121.967-30.26a231.003 231.003 0 01-4.261-2.726l-22.949 36.648" fill="#FBDA20"/><path d="M256.531 295.519c-34.951 55.815-45.28 112.337-23.071 126.242 22.209 13.908 68.545-20.067 103.495-75.883 34.951-55.815 45.28-112.337 23.071-126.242-22.209-13.907-68.545 20.066-103.495 75.883" fill="#D6BC2E"/><path d="M260.437 297.964c-32.104 51.271-41.875 103.013-21.824 115.568 20.051 12.556 62.331-18.829 94.437-70.1 32.103-51.271 41.875-103.012 21.823-115.568-20.051-12.555-62.332 18.83-94.436 70.1" fill="#FBDE28"/><path d="M264.507 300.513c-29.259 46.724-38.544 93.642-20.742 104.79 17.805 11.148 55.956-17.693 85.214-64.419 29.259-46.726 38.544-93.643 20.741-104.79-17.803-11.149-55.954 17.693-85.213 64.419" fill="#FFFCEB"/><path d="M283.755 278.573c1.903-2.333 3.75-3.751 5.337-4.096 1.587-.347 2.471.475 2.554 2.375l1.037 23.551c.067 1.525-.901 3.839-2.409 5.758-1.507 1.921-3.089 2.854-3.937 2.325l-12.998-8.141c-1.028-.644-1.265-2.234-.691-4.625.577-2.393 1.805-4.92 3.576-7.358a222.208 222.208 0 017.531-9.789zm29.275-28.287c1.926-1.356 3.382-1.52 4.194-.474.812 1.047.755 3.011-.163 5.664l-11.819 34.098c-.731 2.11-2.259 4.287-3.801 5.419-1.543 1.13-2.625.866-2.691-.658l-1.068-24.275c-.08-1.815.588-4.116 1.955-6.727 1.366-2.61 3.051-4.805 4.924-6.414 2.865-2.465 5.697-4.683 8.469-6.633zm26.08-9.828c1.347.124 1.935 1.332 1.701 3.501-.233 2.168-1.222 4.693-2.865 7.318l-22.423 35.808c-1.333 2.131-3.01 3.588-4.174 3.625-1.164.04-1.454-1.352-.723-3.462l12.196-35.194c.877-2.528 2.294-4.991 4.139-7.191 1.844-2.199 3.601-3.52 5.13-3.86 2.494-.555 4.845-.744 7.019-.545zm13.893 13.638c.362 1.524-.061 3.682-1.233 6.302-1.173 2.62-2.769 4.969-4.663 6.862l-26.333 26.342c-1.58 1.58-2.958 1.926-3.432.862-.473-1.064.105-3.21 1.438-5.339l22.423-35.808c1.644-2.625 3.483-4.617 5.332-5.775 1.849-1.156 3.193-1.156 3.893.003 1.128 1.869 1.983 4.066 2.575 6.551zm-2.296 31.718c.965-3.655 1.724-7.171 2.267-10.516.379-2.325-.109-3.705-1.406-3.979-1.295-.275-3.038.635-5.022 2.619l-25.515 25.523c-1.579 1.58-2.871 3.904-3.214 5.787-.343 1.88.366 2.738 1.767 2.133l22.304-9.64c1.669-.721 3.446-2.327 5.198-4.697 1.752-2.369 2.99-4.842 3.621-7.23zm-15.914 39.223c-1.419 2.657-3.156 4.866-5.057 6.43-1.9 1.561-3.434 2.042-4.464 1.4l-12.998-8.14c-.847-.532-.698-2.361.372-4.557 1.068-2.194 2.727-4.077 4.128-4.681l21.638-9.353c1.747-.754 2.873-.317 3.254 1.262.382 1.578-.087 3.859-1.355 6.588a222.89 222.89 0 01-5.518 11.051zm-25.062 37.786a221.115 221.115 0 007.532-9.791c1.77-2.435 2.998-4.963 3.575-7.356.576-2.392.338-3.981-.691-4.625l-12.998-8.139c-.847-.53-2.429.403-3.937 2.324-1.508 1.917-2.476 4.233-2.408 5.756l1.036 23.553c.084 1.898.968 2.722 2.555 2.375 1.585-.346 3.433-1.764 5.336-4.097zm-29.275 28.289c2.773-1.951 5.605-4.17 8.47-6.634 1.874-1.61 3.557-3.804 4.924-6.414 1.367-2.612 2.035-4.911 1.956-6.728l-1.07-24.272c-.067-1.528-1.148-1.79-2.69-.661-1.543 1.132-3.07 3.309-3.801 5.419l-11.819 34.099c-.92 2.651-.976 4.617-.164 5.664.812 1.046 2.268.882 4.194-.473zm-26.079 9.827c2.174.199 4.524.009 7.019-.544 1.528-.341 3.286-1.663 5.13-3.862 1.844-2.199 3.26-4.66 4.137-7.19l12.197-35.193c.732-2.111.442-3.503-.722-3.465-1.164.041-2.842 1.496-4.175 3.627l-22.423 35.807c-1.643 2.625-2.631 5.151-2.866 7.319-.233 2.169.355 3.377 1.703 3.501zm-13.894-13.638c.592 2.484 1.447 4.681 2.577 6.551.699 1.157 2.042 1.16 3.891.003 1.849-1.159 3.689-3.15 5.333-5.776l22.422-35.807c1.333-2.13 1.912-4.277 1.439-5.34-.475-1.065-1.853-.718-3.433.861l-26.334 26.343c-1.893 1.892-3.488 4.243-4.663 6.861-1.172 2.621-1.594 4.78-1.232 6.304zm2.296-31.718c.631-2.389 1.869-4.863 3.622-7.231 1.752-2.37 3.528-3.976 5.198-4.696l22.303-9.639c1.402-.607 2.112.251 1.768 2.134-.345 1.879-1.636 4.205-3.215 5.784l-25.514 25.521c-1.985 1.987-3.728 2.894-5.024 2.621-1.296-.273-1.784-1.653-1.404-3.978.543-3.346 1.301-6.862 2.266-10.516zm15.915-39.224a220.727 220.727 0 00-5.518 11.051c-1.268 2.73-1.738 5.01-1.356 6.589.381 1.58 1.509 2.015 3.254 1.262l21.639-9.355c1.4-.603 3.059-2.484 4.128-4.679 1.069-2.195 1.219-4.027.37-4.558l-12.998-8.139c-1.028-.644-2.561-.163-4.462 1.401-1.9 1.563-3.639 3.771-5.057 6.428" fill="#FBE964"/></svg>